# Made in Blockbench 5.1.4
mtllib drawer_framer.mtl

o cube
v 0.875 1 0.875
v 0.875 0.875 1
v 0.875 0.875 0.875
v 0.125 1 0.875
v 0.125 0.875 1
v 0.125 0.875 0.875
v 0.875 1 0.125
v 0.875 0.875 0.125
v 0.875 0.875 0
v 0.125 1 0.125
v 0.125 0.875 0.125
v 0.125 0.875 0
v 0.125 0.9375 0.0625
v 0.875 0.9375 0.0625
v 0.5 0.9375 0.0625
v 0.5 1 0.125
v 0.5 0.875 0.125
v 0.5 0.875 0
v 0.6875 0.9375 0.0625
v 0.6875 1 0.125
v 0.6875 0.875 0.125
v 0.6875 0.875 0
v 0.3125 1 0.125
v 0.3125 0.9375 0.0625
v 0.3125 0.875 0
v 0.3125 0.875 0.125
v 0.12500000000000022 1 0.8750000000000002
v 2.220446049250313e-16 0.875 0.8750000000000002
v 0.12500000000000022 0.875 0.8750000000000002
v 0.125 1 0.12500000000000022
v 0 0.875 0.12500000000000022
v 0.125 0.875 0.12500000000000022
v 0.8750000000000002 1 0.12500000000000022
v 1.0000000000000002 0.875 0.12500000000000022
v 0.8750000000000002 0.875 0.12500000000000022
v 0.875 1 0.8750000000000002
v 1 0.875 0.8750000000000002
v 0.875 0.875 0.8750000000000002
v 0.875 1 0.875
v 1 0.875 1
v 1 0.875 0.875
v 0.875 0.875 1
v 0.875 0.875 0.875
v 0.875 1 0.125
v 1 0.875 0
v 0.875 0.875 0
v 1 0.875 0.125
v 0.875 0.875 0.125
v 0.125 1 0.125
v 0 0.875 0
v 0 0.875 0.125
v 0.125 0.875 0
v 0.125 0.875 0.125
v 0.125 1 0.875
v 0 0.875 1
v 0.125 0.875 1
v 0 0.875 0.875
v 0.125 0.875 0.875
v 0.125 0.125 0.125
v 0.125 0.125 0
v 0.125 0 0.125
v 0.125 0 0
v 0 0.125 0.125
v 0 0.125 0
v 0 0 0.125
v 0 0 0
v 0.125 0.125 1
v 0.125 0.125 0.875
v 0.125 0 1
v 0.125 0 0.875
v 0 0.125 1
v 0 0.125 0.875
v 0 0 1
v 0 0 0.875
v 1 0.125 1
v 1 0.125 0.875
v 1 0 1
v 1 0 0.875
v 0.875 0.125 1
v 0.875 0.125 0.875
v 0.875 0 1
v 0.875 0 0.875
v 1 0.125 0.125
v 1 0.125 0
v 1 0 0.125
v 1 0 0
v 0.875 0.125 0.125
v 0.875 0.125 0
v 0.875 0 0.125
v 0.875 0 0
v 1 0.875 1
v 1 0.875 0
v 1 0.125 1
v 1 0.125 0
v 0 0.875 1
v 0 0.875 0
v 0 0.125 1
v 0 0.125 0
v 0.875 1 0.875
v 0.875 1 0.125
v 0.875 0.875 0.875
v 0.875 0.875 0.125
v 0.125 1 0.875
v 0.125 1 0.125
v 0.125 0.875 0.875
v 0.125 0.875 0.125
vt 0.234375 0.203125
vt 0.234375 0.171875
vt 0.265625 0.171875
vt 0.3125 0.203125
vt 0.28125 0.171875
vt 0.3125 0.171875
vt 0.921875 0.96875
vt 0.921875 1
vt 0.734375 1
vt 0.734375 0.96875
vt 0.71875 0.486328125
vt 0.71875 0.53125
vt 0.53125 0.53125
vt 0.53125 0.486328125
vt 0.921875 0.921875
vt 0.921875 0.953125
vt 0.734375 0.953125
vt 0.734375 0.921875
vt 0.796875 0.359375
vt 0.78125 0.375
vt 0.765625 0.359375
vt 0.78125 0.453125
vt 0.796875 0.46875
vt 0.78125 0.484375
vt 0.359375 0.296875
vt 0.3125 0.296875
vt 0.3125 0.265625
vt 0.359375 0.265625
vt 0.5625 0.296875
vt 0.515625 0.296875
vt 0.515625 0.265625
vt 0.5625 0.265625
vt 0.625 0.384153125
vt 0.671875 0.384153125
vt 0.671875 0.40625
vt 0.625 0.40625
vt 0.625 0.36205624999999997
vt 0.671875 0.36205624999999997
vt 0.671875 0.384153125
vt 0.625 0.384153125
vt 0.796875 0.390625
vt 0.78125 0.375
vt 0.796875 0.359375
vt 0.8125 0.453125
vt 0.796875 0.46875
vt 0.78125 0.453125
vt 0.625 0.40625
vt 0.578125 0.40625
vt 0.578125 0.384153125
vt 0.625 0.384153125
vt 0.5625 0.265625
vt 0.609375 0.265625
vt 0.609375 0.296875
vt 0.5625 0.296875
vt 0.359375 0.265625
vt 0.40625 0.265625
vt 0.40625 0.296875
vt 0.359375 0.296875
vt 0.625 0.384153125
vt 0.578125 0.384153125
vt 0.578125 0.36205624999999997
vt 0.625 0.36205624999999997
vt 0.53125 0.384153125
vt 0.578125 0.384153125
vt 0.578125 0.40625
vt 0.53125 0.40625
vt 0.65625 0.296875
vt 0.609375 0.296875
vt 0.609375 0.265625
vt 0.65625 0.265625
vt 0.453125 0.296875
vt 0.40625 0.296875
vt 0.40625 0.265625
vt 0.453125 0.265625
vt 0.53125 0.36205624999999997
vt 0.578125 0.36205624999999997
vt 0.578125 0.384153125
vt 0.53125 0.384153125
vt 0.71875 0.40625
vt 0.671875 0.40625
vt 0.671875 0.384153125
vt 0.71875 0.384153125
vt 0.71875 0.384153125
vt 0.671875 0.384153125
vt 0.671875 0.36205624999999997
vt 0.71875 0.36205624999999997
vt 0.265625 0.265625
vt 0.3125 0.265625
vt 0.3125 0.296875
vt 0.265625 0.296875
vt 0.46875 0.265625
vt 0.515625 0.265625
vt 0.515625 0.296875
vt 0.46875 0.296875
vt 0.328125 0.203125
vt 0.328125 0.171875
vt 0.359375 0.171875
vt 0.40625 0.203125
vt 0.375 0.171875
vt 0.40625 0.171875
vt 0.921875 0.875
vt 0.921875 0.90625
vt 0.734375 0.90625
vt 0.734375 0.875
vt 0.71875 0.423828125
vt 0.71875 0.46875
vt 0.53125 0.46875
vt 0.53125 0.423828125
vt 0.921875 0.828125
vt 0.921875 0.859375
vt 0.734375 0.859375
vt 0.734375 0.828125
vt 0.78125 0.4375
vt 0.78125 0.40625
vt 0.8125 0.40625
vt 0.21875 0.203125
vt 0.1875 0.171875
vt 0.21875 0.171875
vt 0.859375 0.265625
vt 0.859375 0.296875
vt 0.671875 0.296875
vt 0.671875 0.265625
vt 0.71875 0.548828125
vt 0.71875 0.59375
vt 0.53125 0.59375
vt 0.53125 0.548828125
vt 0.1875 0.234375
vt 0.1875 0.265625
vt 0 0.265625
vt 0 0.234375
vt 0.234375 0.265625
vt 0.203125 0.22143124999999997
vt 0.234375 0.22143124999999997
vt 0.453125 0.203125
vt 0.421875 0.171875
vt 0.453125 0.171875
vt 0.5 0.171875
vt 0.5 0.203125
vt 0.46875 0.203125
vt 0.46875 0.171875
vt 0.546875 0.203125
vt 0.515625 0.171875
vt 0.546875 0.171875
vt 0.765625 0.76830625
vt 0.734375 0.8125
vt 0.734375 0.76830625
vt 0.765625 0.6875
vt 0.734375 0.64330625
vt 0.765625 0.64330625
vt 0.59375 0.203125
vt 0.5625 0.171875
vt 0.59375 0.171875
vt 0.640625 0.171875
vt 0.640625 0.203125
vt 0.609375 0.203125
vt 0.609375 0.171875
vt 0.6875 0.203125
vt 0.65625 0.171875
vt 0.6875 0.171875
vt 0.765625 0.70580625
vt 0.734375 0.75
vt 0.734375 0.70580625
vt 0.765625 0.5625
vt 0.734375 0.51830625
vt 0.765625 0.51830625
vt 0.734375 0.203125
vt 0.703125 0.171875
vt 0.734375 0.171875
vt 0.78125 0.171875
vt 0.78125 0.203125
vt 0.75 0.203125
vt 0.75 0.171875
vt 0.828125 0.21875
vt 0.796875 0.1875
vt 0.828125 0.1875
vt 0.765625 0.58080625
vt 0.734375 0.625
vt 0.734375 0.58080625
vt 0.765625 0.4375
vt 0.734375 0.39330624999999997
vt 0.765625 0.39330624999999997
vt 0.84375 0.40625
vt 0.8125 0.375
vt 0.84375 0.375
vt 0.03125 0.140625
vt 0.03125 0.171875
vt 0 0.171875
vt 0 0.140625
vt 0.078125 0.171875
vt 0.046875 0.140625
vt 0.078125 0.140625
vt 0.765625 0.45580624999999997
vt 0.734375 0.5
vt 0.734375 0.45580624999999997
vt 0.28125 0.21875
vt 0.28125 0.25
vt 0.25 0.25
vt 0.25 0.21875
vt 0.375 0.21875
vt 0.375 0.25
vt 0.34375 0.25
vt 0.34375 0.21875
vt 0.390625 0.25
vt 0.390625 0.21875
vt 0.421875 0.21875
vt 0.421875 0.25
vt 0.4375 0.21875
vt 0.4375 0.25
vt 0.46875 0.25
vt 0.46875 0.21875
vt 0.328125 0.21875
vt 0.328125 0.25
vt 0.296875 0.25
vt 0.296875 0.21875
vt 0.5 0.359375
vt 0.5 0.390625
vt 0.46875 0.390625
vt 0.46875 0.359375
vt 0.5625 0.21875
vt 0.5625 0.25
vt 0.53125 0.25
vt 0.53125 0.21875
vt 0.65625 0.21875
vt 0.65625 0.25
vt 0.625 0.25
vt 0.625 0.21875
vt 0.671875 0.25
vt 0.671875 0.21875
vt 0.703125 0.21875
vt 0.703125 0.25
vt 0.71875 0.21875
vt 0.71875 0.25
vt 0.75 0.25
vt 0.75 0.21875
vt 0.609375 0.21875
vt 0.609375 0.25
vt 0.578125 0.25
vt 0.578125 0.21875
vt 0.515625 0.21875
vt 0.515625 0.25
vt 0.484375 0.25
vt 0.484375 0.21875
vt 0.03125 0.1875
vt 0.03125 0.21875
vt 0 0.21875
vt 0 0.1875
vt 0.125 0.1875
vt 0.125 0.21875
vt 0.09375 0.21875
vt 0.09375 0.1875
vt 0.140625 0.21875
vt 0.140625 0.1875
vt 0.171875 0.1875
vt 0.171875 0.21875
vt 0.78125 0.78125
vt 0.78125 0.8125
vt 0.8125 0.8125
vt 0.8125 0.78125
vt 0.078125 0.1875
vt 0.078125 0.21875
vt 0.046875 0.21875
vt 0.046875 0.1875
vt 0.796875 0.21875
vt 0.796875 0.25
vt 0.765625 0.25
vt 0.765625 0.21875
vt 0.8125 0.6875
vt 0.8125 0.71875
vt 0.78125 0.71875
vt 0.78125 0.6875
vt 0.8125 0.59375
vt 0.8125 0.625
vt 0.78125 0.625
vt 0.78125 0.59375
vt 0.78125 0.578125
vt 0.78125 0.546875
vt 0.8125 0.546875
vt 0.8125 0.578125
vt 0.78125 0.5
vt 0.78125 0.53125
vt 0.8125 0.53125
vt 0.8125 0.5
vt 0.8125 0.640625
vt 0.8125 0.671875
vt 0.78125 0.671875
vt 0.78125 0.640625
vt 0.8125 0.734375
vt 0.8125 0.765625
vt 0.78125 0.765625
vt 0.78125 0.734375
vt 0.515625 0.609375
vt 0.515625 0.796875
vt 0.265625 0.796875
vt 0.265625 0.609375
vt 0.25 0.28125
vt 0.25 0.46875
vt 0 0.46875
vt 0 0.28125
vt 0 1
vt 0 0.75
vt 0.25 0.75
vt 0.25 1
vt 0 0.484375
vt 0 0.734375
vt 0.25 0.734375
vt 0.25 0.484375
vt 0.515625 0.40625
vt 0.515625 0.59375
vt 0.265625 0.59375
vt 0.265625 0.40625
vt 0.515625 0.8125
vt 0.515625 1
vt 0.265625 1
vt 0.265625 0.8125
vt 0.453125 0.3125
vt 0.453125 0.34375
vt 0.265625 0.34375
vt 0.265625 0.3125
vt 0.859375 0.3125
vt 0.859375 0.34375
vt 0.671875 0.34375
vt 0.671875 0.3125
vt 0.53125 1
vt 0.53125 0.8125
vt 0.71875 0.8125
vt 0.71875 1
vt 0.53125 0.609375
vt 0.53125 0.796875
vt 0.71875 0.796875
vt 0.71875 0.609375
vt 0.65625 0.3125
vt 0.65625 0.34375
vt 0.46875 0.34375
vt 0.46875 0.3125
vt 0.453125 0.359375
vt 0.453125 0.390625
vt 0.265625 0.390625
vt 0.265625 0.359375
vn -1 0 0
vn 1 0 0
vn 0 -1 0
vn 0 0.7071067811865476 0.7071067811865476
vn 0 0 -1
vn -1 0 0
vn 1 0 0
vn 0 -1 0
vn 0 0 1
vn 0 0.7071067811865476 -0.7071067811865476
vn 0 0.7071067811865476 -0.7071067811865476
vn -1 0 0
vn 1 0 0
vn 0 0.7071067811865476 -0.7071067811865476
vn 0 0 1
vn 0 -1 0
vn 0 0.7071067811865476 -0.7071067811865476
vn 0 0.7071067811865476 -0.7071067811865476
vn 0 0 1
vn 0 -1 0
vn 0 0.7071067811865476 -0.7071067811865476
vn 0 0.7071067811865476 -0.7071067811865476
vn 0 0.7071067811865476 -0.7071067811865476
vn 0 -1 0
vn 0 0 1
vn 0 0 -1
vn 0 0 1
vn 0 -1 0
vn -0.7071067811865476 0.7071067811865476 2.093456611578367e-16
vn 1 0 -2.9605947323337506e-16
vn 0 0 1
vn 0 0 -1
vn 0 -1 0
vn 0.7071067811865476 0.7071067811865476 2.093456611578367e-16
vn -1 0 -2.9605947323337506e-16
vn 0.7071067811865476 0.7071067811865476 0
vn 1 0 0
vn 0 -1 0
vn 0 0 -1
vn 0 0.7071067811865476 0.7071067811865476
vn 0 0.7071067811865476 -0.7071067811865476
vn 0 0 -1
vn 0 -1 0
vn -1 0 0
vn 0.7071067811865476 0.7071067811865476 0
vn -0.7071067811865476 0.7071067811865476 0
vn -1 0 0
vn 0 -1 0
vn 0 0 1
vn 0 0.7071067811865476 -0.7071067811865476
vn 0 0.7071067811865476 0.7071067811865476
vn 0 0 1
vn 0 -1 0
vn 1 0 0
vn -0.7071067811865476 0.7071067811865476 0
vn 1 0 0
vn -1 0 0
vn 0 1 0
vn 0 -1 0
vn 0 0 1
vn 0 0 -1
vn 1 0 0
vn -1 0 0
vn 0 1 0
vn 0 -1 0
vn 0 0 1
vn 0 0 -1
vn 1 0 0
vn -1 0 0
vn 0 1 0
vn 0 -1 0
vn 0 0 1
vn 0 0 -1
vn 1 0 0
vn -1 0 0
vn 0 1 0
vn 0 -1 0
vn 0 0 1
vn 0 0 -1
vn 1 0 0
vn -1 0 0
vn 0 1 0
vn 0 -1 0
vn 0 0 1
vn 0 0 -1
vn 1 0 0
vn -1 0 0
vn 0 1 0
vn 0 -1 0
vn 0 0 1
vn 0 0 -1
usemtl m_ae6d176e-9136-e21d-8146-0870c02732db
f 1/1/1 3/2/1 2/3/1
f 4/4/2 5/5/2 6/6/2
f 3/7/3 2/8/3 5/9/3 6/10/3
f 2/11/4 1/12/4 4/13/4 5/14/4
f 6/15/5 4/16/5 1/17/5 3/18/5
f 8/19/6 14/20/6 9/21/6
f 11/22/7 13/23/7 10/24/7
f 17/25/8 26/26/8 25/27/8 18/28/8
f 16/29/9 23/30/9 26/31/9 17/32/9
f 15/33/10 24/34/10 23/35/10 16/36/10
f 18/37/11 25/38/11 24/39/11 15/40/11
f 7/41/12 14/42/12 8/43/12
f 12/44/13 13/45/13 11/46/13
f 16/47/14 20/48/14 19/49/14 15/50/14
f 17/51/15 21/52/15 20/53/15 16/54/15
f 18/55/16 22/56/16 21/57/16 17/58/16
f 15/59/17 19/60/17 22/61/17 18/62/17
f 14/63/18 19/64/18 20/65/18 7/66/18
f 7/67/19 20/68/19 21/69/19 8/70/19
f 8/71/20 21/72/20 22/73/20 9/74/20
f 9/75/21 22/76/21 19/77/21 14/78/21
f 10/79/22 23/80/22 24/81/22 13/82/22
f 13/83/23 24/84/23 25/85/23 12/86/23
f 12/87/24 25/88/24 26/89/24 11/90/24
f 11/91/25 26/92/25 23/93/25 10/94/25
f 27/95/26 29/96/26 28/97/26
f 30/98/27 31/99/27 32/100/27
f 29/101/28 28/102/28 31/103/28 32/104/28
f 28/105/29 27/106/29 30/107/29 31/108/29
f 32/109/30 30/110/30 27/111/30 29/112/30
f 33/113/31 35/114/31 34/115/31
f 36/116/32 37/117/32 38/118/32
f 35/119/33 34/120/33 37/121/33 38/122/33
f 34/123/34 33/124/34 36/125/34 37/126/34
f 38/127/35 36/128/35 33/129/35 35/130/35
f 39/131/36 40/132/36 41/133/36
f 39/134/37 42/135/37 43/136/37
f 41/137/38 40/138/38 42/139/38 43/140/38
f 39/141/39 41/142/39 43/143/39
f 40/144/40 39/145/40 42/146/40
f 44/147/41 45/148/41 46/149/41
f 44/150/42 47/151/42 48/152/42
f 46/153/43 45/154/43 47/155/43 48/156/43
f 44/157/44 46/158/44 48/159/44
f 45/160/45 44/161/45 47/162/45
f 49/163/46 50/164/46 51/165/46
f 49/166/47 52/167/47 53/168/47
f 51/169/48 50/170/48 52/171/48 53/172/48
f 49/173/49 51/174/49 53/175/49
f 50/176/50 49/177/50 52/178/50
f 54/179/51 55/180/51 56/181/51
f 54/182/52 57/183/52 58/184/52
f 56/185/53 55/186/53 57/187/53 58/188/53
f 54/189/54 56/190/54 58/191/54
f 55/192/55 54/193/55 57/194/55
f 62/195/56 60/196/56 59/197/56 61/198/56
f 65/199/57 63/200/57 64/201/57 66/202/57
f 59/203/58 60/204/58 64/205/58 63/206/58
f 62/207/59 61/208/59 65/209/59 66/210/59
f 61/211/60 59/212/60 63/213/60 65/214/60
f 66/215/61 64/216/61 60/217/61 62/218/61
f 70/219/62 68/220/62 67/221/62 69/222/62
f 73/223/63 71/224/63 72/225/63 74/226/63
f 67/227/64 68/228/64 72/229/64 71/230/64
f 70/231/65 69/232/65 73/233/65 74/234/65
f 69/235/66 67/236/66 71/237/66 73/238/66
f 74/239/67 72/240/67 68/241/67 70/242/67
f 78/243/68 76/244/68 75/245/68 77/246/68
f 81/247/69 79/248/69 80/249/69 82/250/69
f 75/251/70 76/252/70 80/253/70 79/254/70
f 78/255/71 77/256/71 81/257/71 82/258/71
f 77/259/72 75/260/72 79/261/72 81/262/72
f 82/263/73 80/264/73 76/265/73 78/266/73
f 86/267/74 84/268/74 83/269/74 85/270/74
f 89/271/75 87/272/75 88/273/75 90/274/75
f 83/275/76 84/276/76 88/277/76 87/278/76
f 86/279/77 85/280/77 89/281/77 90/282/77
f 85/283/78 83/284/78 87/285/78 89/286/78
f 90/287/79 88/288/79 84/289/79 86/290/79
f 94/291/80 92/292/80 91/293/80 93/294/80
f 97/295/81 95/296/81 96/297/81 98/298/81
f 91/299/82 92/300/82 96/301/82 95/302/82
f 94/303/83 93/304/83 97/305/83 98/306/83
f 93/307/84 91/308/84 95/309/84 97/310/84
f 98/311/85 96/312/85 92/313/85 94/314/85
f 102/315/86 100/316/86 99/317/86 101/318/86
f 105/319/87 103/320/87 104/321/87 106/322/87
f 99/323/88 100/324/88 104/325/88 103/326/88
f 102/327/89 101/328/89 105/329/89 106/330/89
f 101/331/90 99/332/90 103/333/90 105/334/90
f 106/335/91 104/336/91 100/337/91 102/338/91